<?xml version="1.0" encoding="iso-8859-1"?>
<!-- Uploaded to: SVG Repo, www.svgrepo.com, Generator: SVG Repo Mixer Tools -->
<svg version="1.1" id="Layer_1" xmlns="http://www.w3.org/2000/svg" xmlns:xlink="http://www.w3.org/1999/xlink" 
	 viewBox="0 0 297.001 297.001" xml:space="preserve">
<g>
	<g>
		<g>
			<g>
				<g>
					<circle style="fill:#345F41;" cx="148.501" cy="148.5" r="148.5"/>
				</g>
			</g>
		</g>
	</g>
	<path style="fill:#25492E;" d="M251.665,110.268L45.747,229.589l61.642,61.642c13.056,3.754,26.848,5.77,41.112,5.77
		c79.688,0,144.709-62.77,148.334-141.563L251.665,110.268z"/>
	<g>
		<path style="fill:#BFF796;" d="M241.497,118.997c-1.058,0-2.124-0.334-3.03-1.025l-89.966-68.679l-89.966,68.679
			c-2.196,1.677-5.333,1.254-7.009-0.94c-1.676-2.195-1.254-5.333,0.94-7.009l93-70.994c1.791-1.367,4.277-1.367,6.068,0l93,70.994
			c2.194,1.676,2.616,4.813,0.94,7.009C244.491,118.32,243.003,118.997,241.497,118.997z"/>
	</g>
	<g>
		<path style="fill:#86C867;" d="M244.535,110.022l-93-70.994c-0.989-0.755-2.189-1.077-3.367-0.999v11.518l0.333-0.254
			l89.966,68.679c0.906,0.691,1.973,1.025,3.03,1.025c1.506,0,2.994-0.677,3.979-1.966
			C247.15,114.836,246.73,111.698,244.535,110.022z"/>
	</g>
	<g>
		<path style="fill:#27AE60;" d="M49.6,231h197.803c3.368,0,6.099-2.73,6.099-6.099V114.599c0-3.368-2.73-6.099-6.099-6.099H49.6
			c-3.368,0-6.099,2.73-6.099,6.099v110.303C43.501,228.27,46.231,231,49.6,231z"/>
	</g>
	<g>
		<path style="fill:#208E4C;" d="M247.402,108.5h-99.234V231h99.234c3.368,0,6.099-2.73,6.099-6.099V114.599
			C253.501,111.23,250.771,108.5,247.402,108.5z"/>
	</g>
	<g>
		<g>
			<g>
				<rect x="53.626" y="120.25" style="fill:#BFF796;" width="8.25" height="99"/>
			</g>
			<g>
				<rect x="70.126" y="120.25" style="fill:#BFF796;" width="8.25" height="99"/>
			</g>
			<g>
				<rect x="86.626" y="120.25" style="fill:#BFF796;" width="8.25" height="99"/>
			</g>
			<g>
				<rect x="103.126" y="120.25" style="fill:#BFF796;" width="8.25" height="99"/>
			</g>
			<g>
				<rect x="119.626" y="120.25" style="fill:#BFF796;" width="8.25" height="99"/>
			</g>
			<g>
				<rect x="136.126" y="120.25" style="fill:#BFF796;" width="8.25" height="99"/>
			</g>
		</g>
		<g>
			<g>
				<rect x="152.626" y="120.25" style="fill:#BFF796;" width="8.25" height="99"/>
			</g>
			<g>
				<rect x="169.126" y="120.25" style="fill:#BFF796;" width="8.25" height="99"/>
			</g>
			<g>
				<rect x="185.626" y="120.25" style="fill:#BFF796;" width="8.25" height="99"/>
			</g>
			<g>
				<rect x="202.126" y="120.25" style="fill:#BFF796;" width="8.25" height="99"/>
			</g>
			<g>
				<rect x="218.626" y="120.25" style="fill:#BFF796;" width="8.25" height="99"/>
			</g>
			<g>
				<rect x="235.126" y="120.25" style="fill:#BFF796;" width="8.25" height="99"/>
			</g>
		</g>
	</g>
</g>
</svg>